# xmcd CD database file
#
# Track frame offsets:
#	150
#	20765
#	50692
#
# Disc length: 861 seconds
#
# Revision: 0
# Processed by: cddbd v1.5.1PL0 Copyright (c) Steve Scherf et al.
# Submitted via: CDex 1.51
#
DISCID=23035b03
DTITLE=FANATIC CRISIS - Memories in White
DYEAR=1995
DGENRE=Rock
TTITLE0=Memories in White
TTITLE1=LAST CALL ―寒い夜の自画像―
TTITLE2=Memories in White ―Silent Eve Mix―
EXTD=YEAR: 1995
EXTT0=
EXTT1=
EXTT2=
PLAYORDER=
